<svg width="1080" height="1080" viewBox="0 0 1080 1080" fill="none" xmlns="http://www.w3.org/2000/svg">
<g clip-path="url(#clip0_67_66)">
<path d="M1080 1060C1080 1071.05 1071.05 1080 1060 1080H830C818.954 1080 810 1071.05 810 1060V858.284C810 840.466 788.457 831.543 775.858 844.142L545.858 1074.14C542.107 1077.89 537.02 1080 531.716 1080H20C8.95429 1080 0 1071.05 0 1060V248.007C0 236.961 8.95431 228.007 20 228.007H208.007C219.053 228.007 228.007 219.053 228.007 208.007V20C228.007 8.9543 236.961 0 248.007 0H1060C1071.05 0 1080 8.95431 1080 20V1060ZM270 790C270 801.046 278.954 810 290 810H531.716C537.02 810 542.107 807.893 545.858 804.142L804.142 545.858C807.893 542.107 810 537.02 810 531.716V290C810 278.954 801.046 270 790 270H290C278.954 270 270 278.954 270 290V790Z" fill="#D9D9D9"/>
</g>
<defs>
<clipPath id="clip0_67_66">
<rect width="1080" height="1080" fill="white"/>
</clipPath>
</defs>
</svg>
