<svg width="623" height="623" viewBox="0 0 623 623" fill="none" xmlns="http://www.w3.org/2000/svg">
<path d="M441.5 171.5C447.023 171.5 451.5 175.977 451.5 181.5V441.5C451.5 447.023 447.023 451.5 441.5 451.5H391.5C385.977 451.5 381.5 447.023 381.5 441.5V405.642C381.5 396.733 370.729 392.271 364.429 398.571L314.429 448.571C312.554 450.446 310.01 451.5 307.358 451.5H181.5C175.977 451.5 171.5 447.023 171.5 441.5V251.5C171.5 245.977 175.977 241.5 181.5 241.5H241.5V371.5C241.5 377.023 245.977 381.5 251.5 381.5H307.358C310.01 381.5 312.554 380.446 314.429 378.571L378.571 314.429C380.446 312.554 381.5 310.01 381.5 307.358V251.5C381.5 245.977 377.023 241.5 371.5 241.5H241.5V181.5C241.5 175.977 245.977 171.5 251.5 171.5H441.5Z" fill="#D9D9D9"/>
<path d="M241.5 261.4C241.5 250.695 251.456 241.5 262.61 241.5H241.5V261.4Z" fill="#D9D9D9"/>
<path d="M221.6 241.5C232.305 241.5 241.5 231.544 241.5 220.39V241.5H221.6Z" fill="#D9D9D9"/>
</svg>
